<svg width="146" height="17" viewBox="0 0 146 17" fill="none" xmlns="http://www.w3.org/2000/svg">
<path d="M22.34 2L17.7 16H14.94L11.48 5.64L7.96 16H5.18L0.54 2H3.24L6.72 12.64L10.34 2H12.74L16.28 12.7L19.86 2H22.34ZM33.4573 10.72C33.4573 10.8933 33.444 11.14 33.4173 11.46H25.0373C25.184 12.2467 25.564 12.8733 26.1773 13.34C26.804 13.7933 27.5773 14.02 28.4973 14.02C29.6707 14.02 30.6373 13.6333 31.3973 12.86L32.7373 14.4C32.2573 14.9733 31.6507 15.4067 30.9173 15.7C30.184 15.9933 29.3573 16.14 28.4373 16.14C27.264 16.14 26.2307 15.9067 25.3373 15.44C24.444 14.9733 23.7507 14.3267 23.2573 13.5C22.7773 12.66 22.5373 11.7133 22.5373 10.66C22.5373 9.62 22.7707 8.68667 23.2373 7.86C23.7173 7.02 24.3773 6.36667 25.2173 5.9C26.0573 5.43333 27.004 5.2 28.0573 5.2C29.0973 5.2 30.024 5.43333 30.8373 5.9C31.664 6.35333 32.304 7 32.7573 7.84C33.224 8.66667 33.4573 9.62667 33.4573 10.72ZM28.0573 7.2C27.2573 7.2 26.5773 7.44 26.0173 7.92C25.4707 8.38667 25.1373 9.01333 25.0173 9.8H31.0773C30.9707 9.02667 30.644 8.4 30.0973 7.92C29.5507 7.44 28.8707 7.2 28.0573 7.2ZM41.7788 5.2C42.8188 5.2 43.7454 5.42667 44.5588 5.88C45.3854 6.33333 46.0321 6.97333 46.4988 7.8C46.9654 8.62667 47.1988 9.58 47.1988 10.66C47.1988 11.74 46.9654 12.7 46.4988 13.54C46.0321 14.3667 45.3854 15.0067 44.5588 15.46C43.7454 15.9133 42.8188 16.14 41.7788 16.14C41.0454 16.14 40.3721 16.0133 39.7588 15.76C39.1588 15.5067 38.6521 15.1267 38.2388 14.62V16H35.8588V1.16H38.3588V6.62C38.7854 6.15333 39.2854 5.8 39.8588 5.56C40.4454 5.32 41.0854 5.2 41.7788 5.2ZM41.4988 14C42.4188 14 43.1721 13.6933 43.7588 13.08C44.3588 12.4667 44.6588 11.66 44.6588 10.66C44.6588 9.66 44.3588 8.85333 43.7588 8.24C43.1721 7.62667 42.4188 7.32 41.4988 7.32C40.8988 7.32 40.3588 7.46 39.8788 7.74C39.3988 8.00667 39.0188 8.39333 38.7388 8.9C38.4588 9.40667 38.3188 9.99333 38.3188 10.66C38.3188 11.3267 38.4588 11.9133 38.7388 12.42C39.0188 12.9267 39.3988 13.32 39.8788 13.6C40.3588 13.8667 40.8988 14 41.4988 14ZM55.4897 5.2C56.5297 5.2 57.4564 5.42667 58.2697 5.88C59.0964 6.33333 59.743 6.97333 60.2097 7.8C60.6764 8.62667 60.9097 9.58 60.9097 10.66C60.9097 11.74 60.6764 12.7 60.2097 13.54C59.743 14.3667 59.0964 15.0067 58.2697 15.46C57.4564 15.9133 56.5297 16.14 55.4897 16.14C54.7564 16.14 54.083 16.0133 53.4697 15.76C52.8697 15.5067 52.363 15.1267 51.9497 14.62V16H49.5697V1.16H52.0697V6.62C52.4964 6.15333 52.9964 5.8 53.5697 5.56C54.1564 5.32 54.7964 5.2 55.4897 5.2ZM55.2097 14C56.1297 14 56.883 13.6933 57.4697 13.08C58.0697 12.4667 58.3697 11.66 58.3697 10.66C58.3697 9.66 58.0697 8.85333 57.4697 8.24C56.883 7.62667 56.1297 7.32 55.2097 7.32C54.6097 7.32 54.0697 7.46 53.5897 7.74C53.1097 8.00667 52.7297 8.39333 52.4497 8.9C52.1697 9.40667 52.0297 9.99333 52.0297 10.66C52.0297 11.3267 52.1697 11.9133 52.4497 12.42C52.7297 12.9267 53.1097 13.32 53.5897 13.6C54.0697 13.8667 54.6097 14 55.2097 14ZM65.6606 6.88C66.3806 5.76 67.6473 5.2 69.4606 5.2V7.58C69.2473 7.54 69.054 7.52 68.8806 7.52C67.9073 7.52 67.1473 7.80667 66.6006 8.38C66.054 8.94 65.7806 9.75333 65.7806 10.82V16H63.2806V5.32H65.6606V6.88ZM75.6028 5.2C77.1761 5.2 78.3761 5.58 79.2028 6.34C80.0428 7.08667 80.4628 8.22 80.4628 9.74V16H78.1028V14.7C77.7961 15.1667 77.3561 15.5267 76.7828 15.78C76.2228 16.02 75.5428 16.14 74.7428 16.14C73.9428 16.14 73.2428 16.0067 72.6428 15.74C72.0428 15.46 71.5761 15.08 71.2428 14.6C70.9228 14.1067 70.7628 13.5533 70.7628 12.94C70.7628 11.98 71.1161 11.2133 71.8228 10.64C72.5428 10.0533 73.6695 9.76 75.2028 9.76H77.9628V9.6C77.9628 8.85333 77.7361 8.28 77.2828 7.88C76.8428 7.48 76.1828 7.28 75.3028 7.28C74.7028 7.28 74.1095 7.37333 73.5228 7.56C72.9495 7.74667 72.4628 8.00667 72.0628 8.34L71.0828 6.52C71.6428 6.09333 72.3161 5.76667 73.1028 5.54C73.8895 5.31333 74.7228 5.2 75.6028 5.2ZM75.2628 14.32C75.8895 14.32 76.4428 14.18 76.9228 13.9C77.4161 13.6067 77.7628 13.1933 77.9628 12.66V11.42H75.3828C73.9428 11.42 73.2228 11.8933 73.2228 12.84C73.2228 13.2933 73.4028 13.6533 73.7628 13.92C74.1228 14.1867 74.6228 14.32 75.2628 14.32ZM83.6713 5.32H86.1713V16H83.6713V5.32ZM84.9313 3.56C84.4779 3.56 84.0979 3.42 83.7913 3.14C83.4846 2.84667 83.3313 2.48667 83.3313 2.06C83.3313 1.63333 83.4846 1.28 83.7913 0.999999C84.0979 0.706666 84.4779 0.56 84.9313 0.56C85.3846 0.56 85.7646 0.699999 86.0713 0.979999C86.3779 1.24667 86.5313 1.58667 86.5313 2C86.5313 2.44 86.3779 2.81333 86.0713 3.12C85.7779 3.41333 85.3979 3.56 84.9313 3.56ZM95.5125 5.2C96.8592 5.2 97.9392 5.59333 98.7525 6.38C99.5658 7.16667 99.9725 8.33333 99.9725 9.88V16H97.4725V10.2C97.4725 9.26667 97.2525 8.56667 96.8125 8.1C96.3725 7.62 95.7458 7.38 94.9325 7.38C94.0125 7.38 93.2858 7.66 92.7525 8.22C92.2192 8.76667 91.9525 9.56 91.9525 10.6V16H89.4525V5.32H91.8325V6.7C92.2458 6.20667 92.7658 5.83333 93.3925 5.58C94.0192 5.32667 94.7258 5.2 95.5125 5.2ZM103.944 16.14C103.491 16.14 103.104 15.9867 102.784 15.68C102.464 15.36 102.304 14.96 102.304 14.48C102.304 13.9867 102.457 13.5867 102.764 13.28C103.084 12.9733 103.477 12.82 103.944 12.82C104.411 12.82 104.797 12.9733 105.104 13.28C105.424 13.5867 105.584 13.9867 105.584 14.48C105.584 14.96 105.424 15.36 105.104 15.68C104.784 15.9867 104.397 16.14 103.944 16.14ZM112.731 16.14C111.625 16.14 110.631 15.9067 109.751 15.44C108.871 14.9733 108.185 14.3267 107.691 13.5C107.198 12.66 106.951 11.7133 106.951 10.66C106.951 9.60667 107.198 8.66667 107.691 7.84C108.185 7.01333 108.865 6.36667 109.731 5.9C110.611 5.43333 111.611 5.2 112.731 5.2C113.785 5.2 114.705 5.41333 115.491 5.84C116.291 6.26667 116.891 6.88 117.291 7.68L115.371 8.8C115.065 8.30667 114.678 7.94 114.211 7.7C113.758 7.44667 113.258 7.32 112.711 7.32C111.778 7.32 111.005 7.62667 110.391 8.24C109.778 8.84 109.471 9.64667 109.471 10.66C109.471 11.6733 109.771 12.4867 110.371 13.1C110.985 13.7 111.765 14 112.711 14C113.258 14 113.758 13.88 114.211 13.64C114.678 13.3867 115.065 13.0133 115.371 12.52L117.291 13.64C116.878 14.44 116.271 15.06 115.471 15.5C114.685 15.9267 113.771 16.14 112.731 16.14ZM121.833 6.88C122.553 5.76 123.819 5.2 125.633 5.2V7.58C125.419 7.54 125.226 7.52 125.053 7.52C124.079 7.52 123.319 7.80667 122.773 8.38C122.226 8.94 121.953 9.75333 121.953 10.82V16H119.453V5.32H121.833V6.88ZM141.233 5.2C142.58 5.2 143.647 5.59333 144.433 6.38C145.22 7.15333 145.613 8.32 145.613 9.88V16H143.113V10.2C143.113 9.26667 142.907 8.56667 142.493 8.1C142.08 7.62 141.487 7.38 140.713 7.38C139.873 7.38 139.2 7.66 138.693 8.22C138.187 8.76667 137.933 9.55333 137.933 10.58V16H135.433V10.2C135.433 9.26667 135.227 8.56667 134.813 8.1C134.4 7.62 133.807 7.38 133.033 7.38C132.18 7.38 131.5 7.65333 130.993 8.2C130.5 8.74667 130.253 9.54 130.253 10.58V16H127.753V5.32H130.133V6.68C130.533 6.2 131.033 5.83333 131.633 5.58C132.233 5.32667 132.9 5.2 133.633 5.2C134.433 5.2 135.14 5.35333 135.753 5.66C136.38 5.95333 136.873 6.39333 137.233 6.98C137.673 6.42 138.24 5.98667 138.933 5.68C139.627 5.36 140.393 5.2 141.233 5.2Z" fill="#1890FF"/>
</svg>
